<svg xmlns="http://www.w3.org/2000/svg" viewBox="0 0 100 100" preserveAspectRatio="xMidYMid" width="200" height="200" style="shape-rendering: auto; display: block; background: transparent;" xmlns:xlink="http://www.w3.org/1999/xlink"><g><g transform="rotate(0 50 50)">
  <rect fill="#676060" height="12" width="12" ry="6" rx="6" y="24" x="44">
    <animate repeatCount="indefinite" begin="-1.8518518518518516s" dur="2.083333333333333s" keyTimes="0;1" values="1;0" attributeName="opacity"></animate>
  </rect>
</g><g transform="rotate(40 50 50)">
  <rect fill="#676060" height="12" width="12" ry="6" rx="6" y="24" x="44">
    <animate repeatCount="indefinite" begin="-1.6203703703703702s" dur="2.083333333333333s" keyTimes="0;1" values="1;0" attributeName="opacity"></animate>
  </rect>
</g><g transform="rotate(80 50 50)">
  <rect fill="#676060" height="12" width="12" ry="6" rx="6" y="24" x="44">
    <animate repeatCount="indefinite" begin="-1.3888888888888888s" dur="2.083333333333333s" keyTimes="0;1" values="1;0" attributeName="opacity"></animate>
  </rect>
</g><g transform="rotate(120 50 50)">
  <rect fill="#676060" height="12" width="12" ry="6" rx="6" y="24" x="44">
    <animate repeatCount="indefinite" begin="-1.1574074074074074s" dur="2.083333333333333s" keyTimes="0;1" values="1;0" attributeName="opacity"></animate>
  </rect>
</g><g transform="rotate(160 50 50)">
  <rect fill="#676060" height="12" width="12" ry="6" rx="6" y="24" x="44">
    <animate repeatCount="indefinite" begin="-0.9259259259259258s" dur="2.083333333333333s" keyTimes="0;1" values="1;0" attributeName="opacity"></animate>
  </rect>
</g><g transform="rotate(200 50 50)">
  <rect fill="#676060" height="12" width="12" ry="6" rx="6" y="24" x="44">
    <animate repeatCount="indefinite" begin="-0.6944444444444444s" dur="2.083333333333333s" keyTimes="0;1" values="1;0" attributeName="opacity"></animate>
  </rect>
</g><g transform="rotate(240 50 50)">
  <rect fill="#676060" height="12" width="12" ry="6" rx="6" y="24" x="44">
    <animate repeatCount="indefinite" begin="-0.4629629629629629s" dur="2.083333333333333s" keyTimes="0;1" values="1;0" attributeName="opacity"></animate>
  </rect>
</g><g transform="rotate(280 50 50)">
  <rect fill="#676060" height="12" width="12" ry="6" rx="6" y="24" x="44">
    <animate repeatCount="indefinite" begin="-0.23148148148148145s" dur="2.083333333333333s" keyTimes="0;1" values="1;0" attributeName="opacity"></animate>
  </rect>
</g><g transform="rotate(320 50 50)">
  <rect fill="#676060" height="12" width="12" ry="6" rx="6" y="24" x="44">
    <animate repeatCount="indefinite" begin="0s" dur="2.083333333333333s" keyTimes="0;1" values="1;0" attributeName="opacity"></animate>
  </rect>
</g><g></g></g><!-- [ldio] generated by https://loading.io --></svg>